<?xml version="1.0" standalone="no"?>
<!DOCTYPE svg PUBLIC "-//W3C//DTD SVG 20010904//EN"
 "http://www.w3.org/TR/2001/REC-SVG-20010904/DTD/svg10.dtd">
<svg version="1.0" xmlns="http://www.w3.org/2000/svg"
 width="700.000000pt" height="700.000000pt" viewBox="0 0 700.000000 700.000000"
 preserveAspectRatio="xMidYMid meet">
<metadata>
Created by potrace 1.11, written by Peter Selinger 2001-2013
</metadata>
<g transform="translate(0.000000,700.000000) scale(0.100000,-0.100000)"
fill="#000000" stroke="none">
<path d="M3653 6612 c-25 -4 -72 -55 -74 -80 -1 -9 -2 -86 -3 -171 l-1 -153
-405 -174 c-223 -95 -427 -183 -455 -195 -27 -12 -491 -210 -1030 -441 -539
-230 -998 -428 -1020 -438 -59 -29 -78 -67 -71 -144 11 -120 50 -201 156 -318
98 -110 326 -230 478 -253 21 -3 49 -8 62 -11 14 -3 75 -7 136 -8 301 -9 585
89 747 258 l28 30 23 -25 c215 -227 655 -325 1026 -228 158 41 282 105 378
194 l59 55 44 -42 c132 -123 343 -213 559 -237 78 -9 295 -7 327 3 10 3 32 8
49 11 51 8 197 53 229 69 17 9 34 16 38 16 17 0 150 92 196 135 l48 45 44 -41
c107 -101 290 -191 444 -220 27 -5 61 -12 75 -15 14 -3 81 -7 150 -8 202 -4
361 32 534 122 169 89 314 260 345 410 31 148 15 171 -176 252 -82 34 -168 71
-193 82 -58 26 -83 37 -215 93 -60 26 -126 53 -145 62 -19 8 -44 19 -55 24
-42 18 -741 316 -755 322 -8 3 -334 143 -725 310 l-709 305 -2 154 c-2 198 0
183 -31 218 -28 30 -63 41 -110 32z"/>
<path d="M3667 4154 c-61 -32 -57 37 -57 -1105 0 -954 1 -1043 17 -1069 44
-74 150 -69 190 10 10 20 12 245 10 1065 -2 1022 -2 1040 -22 1067 -31 43 -91
56 -138 32z"/>
<path d="M5753 3575 c-33 -14 -53 -43 -1002 -1477 l-216 -327 -1922 0 c-1565
0 -1928 -2 -1950 -13 -87 -42 -75 -166 20 -200 26 -10 27 -12 27 -84 l0 -74
246 -2 245 -3 -130 -180 c-134 -185 -153 -223 -132 -273 28 -65 118 -87 167
-41 14 13 103 131 197 261 l172 238 1342 0 1342 0 18 -24 c30 -41 255 -354
294 -409 47 -68 89 -97 132 -91 69 11 115 77 95 137 -6 15 -68 107 -138 205
l-129 177 182 5 181 5 96 147 c52 82 167 258 255 394 88 135 165 253 170 261
6 9 55 87 111 172 55 86 161 251 236 366 l135 210 0 162 0 162 54 82 c40 61
54 91 54 118 0 80 -78 128 -152 96z"/>
</g>
</svg>
